<svg xmlns="http://www.w3.org/2000/svg" viewBox="0 0 390.1 537.38"><defs><style>.cls-1{fill:#b2b2b2;}.cls-2{fill:#fff;}.cls-3{fill:none;stroke:#fff;stroke-linecap:round;stroke-miterlimit:10;stroke-width:2px;}</style></defs><title>Recurso 2</title><g id="Capa_2" data-name="Capa 2"><g id="Capa_1-2" data-name="Capa 1"><path class="cls-1" d="M195.05,390.1c-107.55,0-195-87.5-195-195S87.5,0,195.05,0,390.1,87.5,390.1,195.05,302.6,390.1,195.05,390.1ZM195.05,7C91.37,7,7,91.37,7,195.05s84.35,188,188,188,188-84.35,188-188S298.73,7,195.05,7Z"/><path class="cls-1" d="M129.89,89.76a18.34,18.34,0,1,1,18.34-18.34A18.35,18.35,0,0,1,129.89,89.76Zm0-29.66a11.32,11.32,0,1,0,11.32,11.32A11.33,11.33,0,0,0,129.89,60.1Z"/><path class="cls-1" d="M64.61,160A18.34,18.34,0,1,1,83,141.65,18.36,18.36,0,0,1,64.61,160Zm0-29.66a11.32,11.32,0,1,0,11.32,11.32A11.34,11.34,0,0,0,64.61,130.33Z"/><path class="cls-1" d="M180.93,160a18.34,18.34,0,1,1,18.34-18.34A18.36,18.36,0,0,1,180.93,160Zm0-29.66a11.32,11.32,0,1,0,11.32,11.32A11.34,11.34,0,0,0,180.93,130.33Z"/><path class="cls-1" d="M278.53,104.59a18.34,18.34,0,1,1,18.34-18.34A18.36,18.36,0,0,1,278.53,104.59Zm0-29.66a11.32,11.32,0,1,0,11.32,11.32A11.34,11.34,0,0,0,278.53,74.93Z"/><path class="cls-1" d="M325.49,202.07a18.34,18.34,0,1,1,18.34-18.34A18.36,18.36,0,0,1,325.49,202.07Zm0-29.66a11.32,11.32,0,1,0,11.32,11.32A11.34,11.34,0,0,0,325.49,172.41Z"/><path class="cls-2" d="M83.71,127.06a3.52,3.52,0,0,1-2.49-6l32-31.95a3.51,3.51,0,0,1,5,5L86.19,126A3.54,3.54,0,0,1,83.71,127.06Z"/><path class="cls-2" d="M155,148.65H90.58a3.51,3.51,0,1,1,0-7H155a3.51,3.51,0,1,1,0,7Z"/><path class="cls-2" d="M198.53,127.06a3.52,3.52,0,0,1-2.48-6L233.5,83.61a3.53,3.53,0,0,1,2.49-1h15.54a3.51,3.51,0,0,1,0,7H237.44L201,126A3.51,3.51,0,0,1,198.53,127.06Z"/><path class="cls-2" d="M299.78,187.24H225.44a3.51,3.51,0,0,1-2.34-.89l-26.91-24a3.51,3.51,0,1,1,4.68-5.23l25.91,23.14h73a3.51,3.51,0,1,1,0,7Z"/><path class="cls-1" d="M260.22,337a18.34,18.34,0,1,1,18.34-18.34A18.37,18.37,0,0,1,260.22,337Zm0-29.66a11.32,11.32,0,1,0,11.31,11.32A11.33,11.33,0,0,0,260.22,307.36Z"/><path class="cls-1" d="M325.49,266.79a18.34,18.34,0,1,1,18.34-18.34A18.36,18.36,0,0,1,325.49,266.79Zm0-29.66a11.32,11.32,0,1,0,11.32,11.32A11.34,11.34,0,0,0,325.49,237.13Z"/><path class="cls-1" d="M209.18,266.79a18.34,18.34,0,1,1,18.34-18.34A18.36,18.36,0,0,1,209.18,266.79Zm0-29.66a11.32,11.32,0,1,0,11.32,11.32A11.33,11.33,0,0,0,209.18,237.13Z"/><path class="cls-1" d="M111.57,322.19a18.34,18.34,0,1,1,18.34-18.34A18.36,18.36,0,0,1,111.57,322.19Zm0-29.66a11.32,11.32,0,1,0,11.32,11.32A11.34,11.34,0,0,0,111.57,292.53Z"/><path class="cls-1" d="M64.61,224.72A18.35,18.35,0,1,1,83,206.37,18.37,18.37,0,0,1,64.61,224.72Zm0-29.66a11.32,11.32,0,1,0,11.32,11.31A11.33,11.33,0,0,0,64.61,195.06Z"/><path class="cls-2" d="M274.45,302a3.52,3.52,0,0,1-2.49-6l32-31.95a3.51,3.51,0,0,1,5,5L276.93,301A3.5,3.5,0,0,1,274.45,302Z"/><path class="cls-2" d="M299.53,248.48H235.08a3.51,3.51,0,0,1,0-7h64.45a3.51,3.51,0,1,1,0,7Z"/><path class="cls-2" d="M154.12,307.53H138.58a3.52,3.52,0,0,1,0-7h14.08l36.43-36.43a3.51,3.51,0,0,1,5,5L156.6,306.5A3.5,3.5,0,0,1,154.12,307.53Z"/><path class="cls-2" d="M191.57,233.92a3.5,3.5,0,0,1-2.34-.89l-25.9-23.15h-73a3.51,3.51,0,0,1,0-7h74.35a3.47,3.47,0,0,1,2.33.9l26.91,24a3.51,3.51,0,0,1-2.34,6.13Z"/><path class="cls-2" d="M124.71,413.5c.85-1.62,1.54-2.08,3.47-2.08h6.46c1.92,0,2.77.85,2.77,2.77V462.5c0,1.92-.85,2.77-2.77,2.77h-4.46c-1.93,0-2.77-.85-2.77-2.77V427l-12.77,26.61c-.77,1.69-1.46,2.15-3.31,2.15h-5c-1.85,0-2.54-.46-3.31-2.15L90.25,427V462.5c0,1.92-.84,2.77-2.76,2.77H83c-1.92,0-2.77-.85-2.77-2.77V414.19c0-1.92.85-2.77,2.77-2.77h6.47A3.16,3.16,0,0,1,93,413.5l15.92,30.15Z"/><path class="cls-2" d="M168,462.5c0,1.92-.85,2.77-2.77,2.77h-4.46c-1.93,0-2.77-.85-2.77-2.77V414.19c0-1.92.84-2.77,2.77-2.77h4.46c1.92,0,2.77.85,2.77,2.77Z"/><path class="cls-2" d="M224.78,414.19c0-1.92.85-2.77,2.77-2.77H232c1.92,0,2.77.85,2.77,2.77V462.5c0,1.92-.85,2.77-2.77,2.77H226.7a3.66,3.66,0,0,1-3.84-2.08L198.63,427V462.5c0,1.92-.85,2.77-2.77,2.77H191.4c-1.92,0-2.77-.85-2.77-2.77V414.19c0-1.92.85-2.77,2.77-2.77h5.31a3.66,3.66,0,0,1,3.84,2.08l24.23,36.15Z"/><path class="cls-2" d="M258.16,465.27c-1.92,0-2.77-.85-2.77-2.77V414.19c0-1.92.85-2.77,2.77-2.77h18.15c17.85,0,28.93,10.54,28.93,26.92s-11.08,26.93-28.93,26.93Zm7.23-8.7H276.7c11.31,0,18.23-7.38,18.23-18.23S288,420.11,276.7,420.11H265.39Z"/><path class="cls-2" d="M63.2,522.49c-.54,0-1,0-1.5,0l-4.2,0v7.49c0,.64-.29.93-.93.93H55.39c-.64,0-.93-.29-.93-.93V509.49c0-.64.29-.93.93-.93h6.66c4.16,0,8.71,1.41,8.71,6.85a6.37,6.37,0,0,1-4.61,6.47l4.52,8.23a.8.8,0,0,1,.09.36c0,.28-.22.51-.61.51h-1.5a1.1,1.1,0,0,1-1.19-.71Zm-.76-2.34c2.85,0,5.38-1.28,5.38-4.48s-2.53-4.48-5.38-4.52H57.5v9Z"/><path class="cls-2" d="M79.7,524a5.13,5.13,0,0,0,1.66,3.62,5.64,5.64,0,0,0,3.78,1.32,7.33,7.33,0,0,0,3.59-.87,4,4,0,0,0,.77-.57c.32-.26.57-.48.86-.48a.89.89,0,0,1,.55.22l.67.54a.74.74,0,0,1,.38.58.68.68,0,0,1-.19.45,9.33,9.33,0,0,1-6.69,2.59,8.39,8.39,0,0,1,0-16.78c4.64,0,7.81,3.68,7.81,8.36v.22a.73.73,0,0,1-.83.8ZM90,522a5.42,5.42,0,0,0-1.54-3.65,4.81,4.81,0,0,0-3.36-1.38,5.4,5.4,0,0,0-3.65,1.34,5.52,5.52,0,0,0-1.7,3.69Z"/><path class="cls-2" d="M109.16,518.14a.77.77,0,0,1-.61.35.5.5,0,0,1-.41-.16,5.54,5.54,0,0,0-3.62-1.48c-1.76,0-2.85.77-2.85,2s.89,1.76,1.85,2.11l3.14,1.16c2.34.8,3.88,1.95,3.88,4.61,0,3.23-2.4,4.64-6.09,4.64a9.38,9.38,0,0,1-4-.89,6.61,6.61,0,0,1-2.14-1.7,1.13,1.13,0,0,1-.26-.61,1,1,0,0,1,.26-.58l.64-.73a.72.72,0,0,1,.54-.29.58.58,0,0,1,.48.22,6.27,6.27,0,0,0,4.52,2.15c1.85,0,3.14-.67,3.14-2.21s-1-2-2.6-2.63L102.21,523a4.38,4.38,0,0,1-3.27-4.2c0-2.79,2.28-4.26,5.51-4.26a8,8,0,0,1,5.29,1.83.6.6,0,0,1,.25.48.81.81,0,0,1-.28.57Z"/><path class="cls-2" d="M119.25,524a5.21,5.21,0,0,0,1.66,3.62,5.68,5.68,0,0,0,3.78,1.32,7.33,7.33,0,0,0,3.59-.87,3.67,3.67,0,0,0,.77-.57,1.57,1.57,0,0,1,.86-.48.85.85,0,0,1,.55.22l.67.54a.73.73,0,0,1,.39.58.7.7,0,0,1-.2.45,9.33,9.33,0,0,1-6.69,2.59,8.39,8.39,0,0,1,0-16.78c4.64,0,7.81,3.68,7.81,8.36v.22a.73.73,0,0,1-.83.8Zm10.28-2A5.33,5.33,0,0,0,128,518.3a4.79,4.79,0,0,0-3.36-1.38,5.41,5.41,0,0,0-3.65,1.34,5.52,5.52,0,0,0-1.7,3.69Z"/><path class="cls-2" d="M150.25,529c-1.22,1.67-3.27,2.37-5.7,2.37-3.62,0-6.31-2.11-6.31-5.44s2.85-5.45,6.5-5.45a16.12,16.12,0,0,1,5.19.8l0-.54c-.13-2.31-1.48-3.91-4.36-3.91a10,10,0,0,0-4.71,1.09.62.62,0,0,1-.38.13c-.26,0-.45-.16-.61-.48l-.22-.51a.84.84,0,0,1-.13-.45.69.69,0,0,1,.38-.61,10.59,10.59,0,0,1,5.67-1.41c4.52,0,7.21,2.66,7.21,6.37v9.2a.74.74,0,0,1-.83.83h-.84a.74.74,0,0,1-.83-.83Zm-.32-5.7a12.38,12.38,0,0,0-4.48-.7c-2.41,0-4.36,1.28-4.36,3.33s1.86,3.27,4.1,3.27c2.72,0,4.74-1.45,4.74-3.82Z"/><path class="cls-2" d="M163.51,517.56c.93-1.67,2.75-2.76,5.54-2.76a3.21,3.21,0,0,1,1,.1.63.63,0,0,1,.45.61,1.18,1.18,0,0,1-.09.42l-.36,1c-.16.42-.38.54-.64.54s-.8-.09-1.18-.09c-3.17,0-4.42,2-4.42,4.48v8.3a.74.74,0,0,1-.83.83h-1.29a.74.74,0,0,1-.83-.83V515.8a.75.75,0,0,1,.83-.84h1a.75.75,0,0,1,.83.84Z"/><path class="cls-2" d="M188,518.84a.91.91,0,0,1-.58.26,1.06,1.06,0,0,1-.7-.39,4.12,4.12,0,0,0-.51-.41,6.5,6.5,0,0,0-3.75-1.16,5.83,5.83,0,0,0,0,11.66,6.77,6.77,0,0,0,2.88-.61A7.35,7.35,0,0,0,187,527a.75.75,0,0,1,.48-.19.78.78,0,0,1,.54.25l.67.61a.76.76,0,0,1,.32.61.72.72,0,0,1-.22.51,6.18,6.18,0,0,1-1.7,1.35,9.61,9.61,0,0,1-4.61,1.18,8.39,8.39,0,1,1,0-16.78,9.9,9.9,0,0,1,3.43.64,7.73,7.73,0,0,1,2.88,1.89.72.72,0,0,1,.22.51.75.75,0,0,1-.32.61Z"/><path class="cls-2" d="M198.29,517.3c1-1.69,2.88-2.72,5.54-2.72,4,0,6.34,2.72,6.34,6.79v8.78a.74.74,0,0,1-.83.83h-1.28a.75.75,0,0,1-.84-.83v-8.3c0-2.85-1.47-4.71-4.22-4.71-3.05,0-4.58,2.05-4.58,4.71v8.3a.75.75,0,0,1-.84.83H196.3a.74.74,0,0,1-.83-.83V508.46a.79.79,0,0,1,.67-.89l1.32-.39a.72.72,0,0,1,.25,0,.59.59,0,0,1,.58.67Z"/><path class="cls-2" d="M240.79,521.4c-.64,0-.93-.29-.93-.93v-.8c0-.64.29-.93.93-.93h7.75c.64,0,.93.29.93.93v6.76a2.1,2.1,0,0,1-.58,1.73,9.68,9.68,0,0,1-3.17,2.15,13.83,13.83,0,0,1-5.41,1.05c-6.86,0-11.53-5-11.53-11.59s4.67-11.6,11.53-11.6a12.74,12.74,0,0,1,6.63,1.8c.41.25,1.6,1,1.82,1.54a.78.78,0,0,1,.07.25.91.91,0,0,1-.42.67l-.9.74a1,1,0,0,1-.64.29.74.74,0,0,1-.54-.22,9.09,9.09,0,0,0-6-2.31c-5,0-8.4,3.78-8.4,8.84s3.4,8.84,8.4,8.84a9.16,9.16,0,0,0,6.18-2.27V521.4Z"/><path class="cls-2" d="M260,517.56c.93-1.67,2.75-2.76,5.54-2.76a3.31,3.31,0,0,1,1,.1.62.62,0,0,1,.44.61,1.18,1.18,0,0,1-.09.42l-.35,1c-.16.42-.39.54-.64.54s-.81-.09-1.19-.09c-3.17,0-4.42,2-4.42,4.48v8.3a.74.74,0,0,1-.83.83h-1.28a.75.75,0,0,1-.84-.83V515.8a.75.75,0,0,1,.84-.84h1a.75.75,0,0,1,.83.84Z"/><path class="cls-2" d="M287.83,523c0,4.87-3.68,8.39-8.71,8.39s-8.71-3.52-8.71-8.39,3.68-8.39,8.71-8.39S287.83,518.1,287.83,523Zm-2.91,0a5.8,5.8,0,1,0-5.8,5.9A5.68,5.68,0,0,0,284.92,523Z"/><path class="cls-2" d="M306.41,528.38a5.91,5.91,0,0,1-5.58,3c-3.87,0-6.18-2.72-6.18-6.79V515.8a.75.75,0,0,1,.84-.84h1.28a.75.75,0,0,1,.83.84v8.29c0,2.85,1.41,4.71,4.07,4.71,2.94,0,4.42-2,4.42-4.71V515.8a.74.74,0,0,1,.83-.84h1.28a.74.74,0,0,1,.83.84v14.35a.74.74,0,0,1-.83.83h-1a.74.74,0,0,1-.83-.83Z"/><path class="cls-2" d="M320.24,536.55a.74.74,0,0,1-.83.83h-1.16a.74.74,0,0,1-.83-.83V515.8a.75.75,0,0,1,.83-.84h.84a.75.75,0,0,1,.83.84v2a7.22,7.22,0,0,1,6.21-3.17c4.74,0,7.95,3.46,7.95,8.39s-3.21,8.39-7.95,8.39a7.07,7.07,0,0,1-5.89-3ZM331.16,523a5.52,5.52,0,1,0-5.54,5.83A5.54,5.54,0,0,0,331.16,523Z"/><line class="cls-3" x1="56.03" y1="486.33" x2="334.07" y2="486.33"/></g></g></svg>